<?xml version="1.0" encoding="UTF-8" standalone="no"?>
<!-- Created with Inkscape (http://www.inkscape.org/) -->

<svg
   width="145pt"
   height="60.000004pt"
   viewBox="0 0 145 60.000003"
   version="1.1"
   id="svg432"
   xml:space="preserve"
   sodipodi:docname="bgmedia_logo_flat.inkscape.svg"
   inkscape:version="1.2.2 (b0a8486541, 2022-12-01)"
   xmlns:inkscape="http://www.inkscape.org/namespaces/inkscape"
   xmlns:sodipodi="http://sodipodi.sourceforge.net/DTD/sodipodi-0.dtd"
   xmlns="http://www.w3.org/2000/svg"
   xmlns:svg="http://www.w3.org/2000/svg"><sodipodi:namedview
     id="namedview1772"
     pagecolor="#505050"
     bordercolor="#eeeeee"
     borderopacity="1"
     inkscape:showpageshadow="0"
     inkscape:pageopacity="0"
     inkscape:pagecheckerboard="0"
     inkscape:deskcolor="#505050"
     inkscape:document-units="pt"
     showgrid="false"
     inkscape:zoom="2.7132341"
     inkscape:cx="53.073194"
     inkscape:cy="55.284577"
     inkscape:window-width="1920"
     inkscape:window-height="1008"
     inkscape:window-x="0"
     inkscape:window-y="0"
     inkscape:window-maximized="1"
     inkscape:current-layer="svg432" /><defs
     id="defs429"><rect
       x="458.54507"
       y="192.62766"
       width="465.83951"
       height="155.31242"
       id="rect2669" /><rect
       x="458.54507"
       y="192.62766"
       width="465.83951"
       height="155.31242"
       id="rect2681" /></defs><g
     id="layer1"
     style="display:inline;fill:#000000;fill-opacity:1"
     transform="translate(45.268089,124.38776)"><path
       d="m 56.222819,-87.954964 q 0.402729,-1.553385 0.843814,-3.241014 0.421907,-1.687629 0.997235,-3.969764 0.594506,-2.358845 0.997236,-4.065651 0.421907,-1.706807 0.767104,-3.106767 h 3.221836 q -0.03836,0.46026 -0.115065,1.09312 -0.05753,0.61368 -0.134243,1.361609 -0.05753,0.728748 -0.134244,1.51503 -0.05753,0.786282 -0.115065,1.572563 -0.03835,0.47944 -0.153421,1.112301 -0.09589,0.632861 -0.210954,1.304077 -0.09589,0.671216 -0.191776,1.227366 l 0.01918,-0.862992 h 0.306842 l -0.421908,0.862992 q 0.210954,-0.594505 0.441085,-1.246544 0.230131,-0.652038 0.460263,-1.284899 0.230131,-0.632861 0.402729,-1.093123 0.32602,-0.786282 0.652039,-1.572563 0.326019,-0.80546 0.613683,-1.534208 0.306842,-0.728749 0.55615,-1.361609 0.268487,-0.63286 0.441085,-1.09312 h 3.106772 q -0.364375,1.39996 -0.80546,3.106767 -0.421907,1.706806 -1.016413,4.065651 -0.575328,2.282135 -0.997235,3.969764 -0.402729,1.687629 -0.767104,3.241014 h -2.47391 q 0.230131,-0.805459 0.402729,-1.495853 0.191776,-0.690393 0.364375,-1.342432 0.172598,-0.671216 0.345197,-1.361609 0.191776,-0.709572 0.402729,-1.534208 0.210954,-0.901348 0.517795,-1.936938 0.306842,-1.03559 0.613684,-2.109536 0.306841,-1.073946 0.536972,-2.013648 l -0.172598,1.706806 -0.824637,-0.09589 1.073946,-1.572563 q -0.249309,0.652038 -0.517795,1.399965 -0.268487,0.747926 -0.556151,1.495853 -0.268486,0.728749 -0.517795,1.380787 -0.230131,0.632861 -0.421907,1.093123 l -2.704042,6.386141 h -1.093123 l 0.47944,-6.462851 q 0.03836,-0.498618 0.115065,-1.169834 0.07671,-0.671216 0.172599,-1.399965 0.09589,-0.747926 0.172598,-1.457497 0.09589,-0.709572 0.172599,-1.2849 l 0.210953,1.591741 -0.824637,0.07671 0.728749,-1.687629 q -0.210953,0.805459 -0.402729,1.591741 -0.172599,0.786281 -0.32602,1.553385 -0.15342,0.747927 -0.306841,1.495853 -0.153421,0.728749 -0.326019,1.419143 -0.210954,0.824636 -0.383552,1.534208 -0.153421,0.709571 -0.32602,1.380787 -0.15342,0.652038 -0.326019,1.342432 -0.153421,0.671216 -0.326019,1.476675 z"
       style="font-size:19.1776px;font-family:'Obviously Variable';-inkscape-font-specification:'Obviously Variable, @ital=1.00,wght=723,wdth=66';font-variation-settings:'ital' 1, 'wdth' 66, 'wght' 723;text-align:center;letter-spacing:1.50928px;text-anchor:middle;fill:#000000;stroke-width:1;stroke-linecap:round;stroke-linejoin:bevel;stroke-opacity:0.745913;paint-order:stroke markers fill;fill-opacity:1"
       id="path1437" /><path
       d="m 71.463244,-94.072618 0.613683,-2.512266 q 0.326019,0 0.671216,0 0.345197,0 0.671216,0 0.345197,-0.01918 0.671216,-0.01918 0.326019,0 0.632861,0 0.306841,-0.01918 0.594505,-0.03835 -0.07671,0.306842 -0.210953,0.805459 -0.115066,0.47944 -0.249309,0.978058 -0.115066,0.47944 -0.191776,0.824637 -0.268486,-0.01918 -0.575328,-0.01918 -0.306842,-0.01918 -0.632861,-0.01918 -0.306842,0 -0.652038,0 -0.32602,0 -0.671216,0 -0.345197,0 -0.671216,0 z m 1.783516,6.117654 h -5.561504 q 0.249309,-0.95888 0.536973,-2.032825 0.268486,-1.093124 0.575328,-2.358845 0.326019,-1.265722 0.690394,-2.79993 0.287664,-1.150656 0.536973,-2.147891 0.268486,-1.016413 0.47944,-1.898583 0.210953,-0.901352 0.402729,-1.687632 0.210954,-0.78628 0.364375,-1.45749 h 5.561504 q -0.05753,0.2493 -0.153421,0.63286 -0.09589,0.38355 -0.191776,0.74792 -0.07671,0.38355 -0.191776,0.80546 -0.09589,0.421909 -0.172598,0.690396 -0.364375,-0.01918 -0.728749,-0.01918 -0.364375,0 -0.728749,0 -0.345197,-0.01918 -0.690394,-0.01918 -0.345197,0 -0.652038,0 -0.306842,0 -0.594506,0 l 0.88217,-2.071186 q -0.153421,0.59451 -0.326019,1.22737 -0.153421,0.632862 -0.306842,1.2849 -0.153421,0.632861 -0.306842,1.265722 -0.15342,0.613683 -0.306841,1.227367 -0.153421,0.613683 -0.306842,1.169833 -0.191776,0.767104 -0.383552,1.495853 -0.172598,0.728749 -0.345197,1.380787 -0.15342,0.652039 -0.306841,1.265722 -0.153421,0.594506 -0.287664,1.169834 -0.134243,0.55615 -0.268487,1.093123 l 0.153421,-2.052003 q 0.287664,0 0.594506,0 0.306841,0 0.652038,0 0.364375,0 0.709571,0 0.364375,0 0.728749,0 0.364375,-0.01918 0.728749,-0.01918 -0.07671,0.287664 -0.191776,0.709571 -0.115066,0.421907 -0.210954,0.843815 -0.09589,0.383552 -0.210953,0.824636 -0.09589,0.421908 -0.172599,0.728749 z"
       style="font-size:19.1776px;font-family:'Obviously Variable';-inkscape-font-specification:'Obviously Variable, @ital=1.00,wght=723,wdth=66';font-variation-settings:'ital' 1, 'wdth' 66, 'wght' 723;text-align:center;letter-spacing:1.50928px;text-anchor:middle;fill:#000000;stroke-width:1;stroke-linecap:round;stroke-linejoin:bevel;stroke-opacity:0.745913;paint-order:stroke markers fill;fill-opacity:1"
       id="path1439" /><path
       d="m 78.783323,-89.450817 -0.134243,-1.284899 q 0.134243,0.01918 0.249309,0.03835 0.115065,0 0.230131,0.01918 0.115066,0 0.230131,0.01918 0.115066,0 0.230131,0 0.287664,0 0.517796,-0.07671 0.230131,-0.09589 0.441084,-0.345197 0.230132,-0.249308 0.441085,-0.728748 0.210954,-0.498618 0.441085,-1.304077 0.249309,-0.824637 0.556151,-2.032826 0.306841,-1.265722 0.460262,-2.109536 0.172598,-0.843815 0.191776,-1.36161 0.01918,-0.517795 -0.07671,-0.767104 -0.07671,-0.268486 -0.249309,-0.364374 -0.172599,-0.09589 -0.421907,-0.09589 -0.249309,0 -0.479441,0.01918 -0.210953,0 -0.47944,0.03836 l 0.728749,-1.150652 q -0.134243,0.44109 -0.326019,1.112296 -0.172598,0.652039 -0.383552,1.43832 -0.191776,0.786282 -0.40273,1.630097 -0.210953,0.843814 -0.402729,1.649273 -0.287664,1.112301 -0.517795,1.994471 -0.210954,0.882169 -0.383552,1.553385 -0.153421,0.671216 -0.268487,1.189012 -0.115065,0.517795 -0.191776,0.920524 z m 0.575328,1.495853 h -3.547856 q 0.268486,-0.997235 0.55615,-2.071181 0.268487,-1.073945 0.575328,-2.320489 0.32602,-1.265722 0.690394,-2.780752 0.287664,-1.150656 0.536973,-2.147892 0.268486,-1.016413 0.47944,-1.898582 0.210954,-0.90135 0.40273,-1.68763 0.191776,-0.78628 0.345196,-1.47667 h 3.030061 q 0.747927,0 1.323255,0.19177 0.575328,0.1726 0.920525,0.63286 0.364374,0.44109 0.47944,1.26572 0.134243,0.805463 -0.01918,2.071185 -0.153421,1.246544 -0.613683,3.068416 -0.421907,1.745162 -0.843815,2.991706 -0.421907,1.246544 -0.862992,2.071181 -0.441084,0.805459 -0.95888,1.265721 -0.498617,0.460263 -1.112301,0.652039 -0.613683,0.172598 -1.380787,0.172598 z"
       style="font-size:19.1776px;font-family:'Obviously Variable';-inkscape-font-specification:'Obviously Variable, @ital=1.00,wght=723,wdth=66';font-variation-settings:'ital' 1, 'wdth' 66, 'wght' 723;text-align:center;letter-spacing:1.50928px;text-anchor:middle;fill:#000000;stroke-width:1;stroke-linecap:round;stroke-linejoin:bevel;stroke-opacity:0.745913;paint-order:stroke markers fill;fill-opacity:1"
       id="path1441" /><path
       d="m 87.829397,-87.954964 h -2.646509 q 0.191776,-0.728749 0.40273,-1.495853 0.191776,-0.786281 0.421907,-1.668451 0.210954,-0.882169 0.441085,-1.879405 0.249309,-0.997235 0.536973,-2.147891 0.287664,-1.150656 0.536973,-2.147891 0.268486,-1.016413 0.47944,-1.898583 0.230131,-0.882172 0.402729,-1.649272 0.191776,-0.78628 0.364375,-1.49585 h 2.646509 q -0.172599,0.70957 -0.383552,1.49585 -0.210954,0.7671 -0.441085,1.649272 -0.210954,0.88217 -0.460263,1.898583 -0.249309,0.997235 -0.536973,2.147891 -0.287664,1.150656 -0.536972,2.147891 -0.249309,0.997236 -0.460263,1.879405 -0.210953,0.862992 -0.402729,1.649274 -0.191776,0.786281 -0.364375,1.51503 z"
       style="font-size:19.1776px;font-family:'Obviously Variable';-inkscape-font-specification:'Obviously Variable, @ital=1.00,wght=723,wdth=66';font-variation-settings:'ital' 1, 'wdth' 66, 'wght' 723;text-align:center;letter-spacing:1.50928px;text-anchor:middle;fill:#000000;stroke-width:1;stroke-linecap:round;stroke-linejoin:bevel;stroke-opacity:0.745913;paint-order:stroke markers fill;fill-opacity:1"
       id="path1443" /><path
       d="m 92.965679,-93.593178 q 0.210954,0 0.47944,0 0.287664,0 0.575328,0.01918 0.306842,0 0.594506,0 0.287664,0 0.517795,0 0.210953,0 0.47944,0 0.287664,0 0.594505,0 0.306842,0 0.575329,0 0.287664,-0.01918 0.498617,-0.01918 l -0.575328,2.435555 q -0.249309,-0.01918 -0.536973,-0.01918 -0.287664,0 -0.594505,0 -0.287664,0 -0.556151,0 -0.268486,0 -0.47944,0 -0.210953,0 -0.47944,0 -0.268486,0 -0.575328,0 -0.306841,0 -0.613683,0 -0.287664,0 -0.55615,0.01918 z m 4.602624,5.638214 h -2.704042 q 0.07671,-0.345196 0.191776,-0.978057 0.134244,-0.632861 0.287664,-1.476676 0.153421,-0.843814 0.306842,-1.821872 0.172598,-0.978057 0.345197,-2.013648 0.172598,-1.054768 0.326019,-2.071181 0.153421,-1.016413 0.287664,-1.91776 0.07671,-0.536973 0.153421,-1.131478 0.09589,-0.613683 0.172598,-1.150654 0.09589,-0.53698 0.153421,-0.86299 l 0.134243,0.63286 h -0.575328 l 0.460263,-0.63286 q -0.115066,0.32601 -0.306842,0.86299 -0.172598,0.517793 -0.383552,1.131476 -0.210954,0.594506 -0.441085,1.169834 -0.383552,1.073946 -0.805459,2.301312 -0.40273,1.208189 -0.824637,2.416378 -0.402729,1.208189 -0.767104,2.301312 -0.345197,1.073945 -0.613683,1.91776 -0.268486,0.843814 -0.40273,1.323254 h -2.627331 q 0.306842,-0.767104 0.709571,-1.821872 0.40273,-1.073945 0.843815,-2.301312 0.460262,-1.227366 0.920525,-2.512266 0.47944,-1.284899 0.920524,-2.512265 0.460263,-1.227367 0.843815,-2.282135 0.383552,-1.054766 0.652038,-1.821876 0.287664,-0.7671 0.40273,-1.13147 h 4.142362 q -0.03836,0.38355 -0.153421,1.15065 -0.09589,0.76711 -0.249309,1.821874 -0.134243,1.054768 -0.287664,2.282134 -0.153421,1.208189 -0.326019,2.493088 -0.153421,1.2849 -0.306842,2.512266 -0.153421,1.227367 -0.287664,2.301312 -0.115065,1.054768 -0.191776,1.821872 z"
       style="font-size:19.1776px;font-family:'Obviously Variable';-inkscape-font-specification:'Obviously Variable, @ital=1.00,wght=723,wdth=66';font-variation-settings:'ital' 1, 'wdth' 66, 'wght' 723;text-align:center;letter-spacing:1.50928px;text-anchor:middle;fill:#000000;stroke-width:1;stroke-linecap:round;stroke-linejoin:bevel;stroke-opacity:0.745913;paint-order:stroke markers fill;fill-opacity:1"
       id="path1445" /><path
       d="m 15.83776,-96.336472 c -0.167121,-0.06311 -0.190211,-0.146286 -0.190211,-0.217257 0,-0.114731 0.02804,-0.146286 0.04783,-0.169925 0.01924,-0.02798 0.07476,-0.0868 0.241886,-0.16998 2.20061,-1.243402 3.319332,-3.09053 3.319332,-5.482666 0,-2.39214 -0.773485,-4.08518 -2.300664,-5.35651 -1.518932,-1.28645 -3.581558,-1.94185 -6.135651,-1.94185 H 0.35283895 v 26.679231 H 10.812034 c 2.649748,0 4.767348,-0.655345 6.282432,-1.941792 1.551367,-1.295024 2.335847,-3.157984 2.335847,-5.541493 0,-2.936383 -1.209429,-4.9105 -3.596951,-5.861331 z M 14.029114,-99.2413 c -0.800972,0.611641 -2.007102,0.919991 -3.581558,0.919991 H 4.3510454 v -7.740011 h 6.0965106 c 1.574456,0 2.780586,0.30763 3.585406,0.91999 0.812516,0.6002 1.225371,1.59045 1.225371,2.94858 0,1.35814 -0.411755,2.348385 -1.225371,2.948592 z m -9.6780686,4.53118 h 6.0965106 c 1.673959,0 2.938912,0.319784 3.76792,0.955119 0.813066,0.600206 1.225371,1.642074 1.225371,3.094873 0,1.452744 -0.412305,2.510444 -1.225371,3.130001 -0.82516,0.611641 -2.093961,0.919991 -3.76792,0.919991 H 4.3510454 v -8.103612 z"
       fill="#182232"
       id="path1862"
       style="fill:#000000;fill-opacity:1;stroke-width:0.75" /><path
       d="m 32.054,-105.31632 c 1.43922,-0.8605 3.13352,-1.29502 5.033422,-1.29502 2.570036,0 4.537007,0.63962 5.849787,1.89452 1.31388,1.25912 2.079118,2.9758 2.269328,5.099773 l 0.0121,0.141943 h 3.989465 l -0.0077,-0.165637 c -0.07476,-1.823489 -0.563484,-3.556659 -1.455713,-5.158539 -0.892778,-1.60624 -2.252835,-2.92066 -4.033444,-3.90377 -1.75752,-1.01031 -3.926246,-1.52377 -6.445156,-1.52377 -2.736607,0 -5.175805,0.58443 -7.249976,1.74109 -2.078568,1.13296 -3.708548,2.76717 -4.84706,4.85882 -1.111025,2.08814 -1.673959,4.539043 -1.673959,7.28615 0,2.747053 0.551389,5.198729 1.637676,7.286148 1.114874,2.091652 2.733309,3.741643 4.811328,4.898297 2.07417,1.128617 4.537006,1.705129 7.325839,1.705129 3.533181,0 6.32971,-0.912074 8.312624,-2.715497 2.01095,-1.804138 3.034017,-4.322498 3.034017,-7.476139 v -2.759311 H 34.905503 v 3.611904 h 9.713912 c -0.03628,1.705184 -0.623406,3.09053 -1.748724,4.120963 -1.166549,1.065562 -2.98674,1.606231 -5.409995,1.606231 -2.070322,0 -3.879517,-0.422365 -5.366565,-1.25918 -1.487048,-0.860453 -2.641502,-2.072301 -3.43038,-3.596071 -0.769636,-1.558899 -1.162151,-3.382443 -1.162151,-5.423189 0,-2.040801 0.400211,-3.824875 1.197335,-5.383775 0.793275,-1.55103 1.924091,-2.76283 3.363311,-3.59607 z"
       fill="#182232"
       id="path1874"
       style="fill:#000000;fill-opacity:1;stroke-width:0.75" /><path
       id="path1886"
       style="fill:#000000;fill-opacity:1;stroke-width:0.75"
       d="M -26.075706 -124.38776 C -27.045829 -124.3954 -28.151531 -124.17982 -29.455101 -123.64508 L -29.455101 -109.60016 L -32.815453 -109.60016 L -32.815453 -105.74909 C -32.815453 -104.1013 -34.153002 -102.7696 -35.79348 -102.7696 C -37.433903 -102.7696 -38.771507 -104.1013 -38.771507 -105.74909 L -38.771507 -109.60016 L -45.268089 -109.60016 L -45.268089 -82.951725 L -34.167503 -82.951725 L -34.167503 -90.798893 C -34.167503 -94.246807 -31.372918 -97.042057 -27.940453 -97.042057 C -24.507933 -97.042057 -21.714867 -94.246807 -21.714867 -90.798893 L -21.714867 -82.951725 L -10.567406 -82.951725 L -10.567406 -109.60016 L -17.115257 -109.60016 L -17.115257 -105.7652 C -17.115257 -104.11741 -18.45286 -102.78571 -20.093285 -102.78571 C -21.733763 -102.78571 -23.071312 -104.11741 -23.071312 -105.7652 L -23.071312 -109.60016 L -26.55764 -109.60016 L -26.55764 -114.5235 C -26.55764 -114.5235 -25.818269 -116.04625 -23.119652 -115.37458 C -19.548652 -114.4857 -15.149561 -115.08801 -12.325218 -120.19977 C -19.54651 -117.82137 -20.837043 -124.34649 -26.075706 -124.38776 z " /><path
       d="m -44.711801,-68.672041 0.0134,-0.536187 q 0.31501,0.0134 0.623318,0.02011 0.31501,0 0.556294,0 0.415545,-0.0067 0.663532,-0.100536 0.254689,-0.100535 0.368629,-0.2882 0.120642,-0.194368 0.120642,-0.475866 0,-0.308308 -0.120642,-0.475866 -0.11394,-0.174261 -0.361927,-0.241285 -0.241284,-0.06702 -0.643424,-0.06702 -0.268094,0 -0.589806,0.0067 -0.31501,0 -0.650127,0.01341 l 0.227879,-0.328415 q -0.0067,0.160856 -0.0134,0.402141 0,0.241284 -0.0067,0.536187 0,0.2882 0,0.609913 0,0.31501 0,0.636722 0,0.31501 0,0.636722 0,0.321713 0.0067,0.63002 0.0067,0.308308 0.0134,0.576402 0.0067,0.261391 0.01341,0.469163 l -0.187666,-0.375331 q 0.355225,0.01341 0.663532,0.02011 0.308308,0 0.54289,0 0.321712,0 0.542889,-0.04021 0.22788,-0.04021 0.361927,-0.134046 0.134046,-0.09383 0.194367,-0.261392 0.06702,-0.167558 0.06702,-0.415545 0,-0.294903 -0.120642,-0.475866 -0.120642,-0.180963 -0.382034,-0.268094 -0.261391,-0.08713 -0.697043,-0.08713 -0.167558,0 -0.368629,0.0067 -0.20107,0 -0.415545,0 -0.214475,0 -0.422247,0.0067 z m 1.447705,2.285498 h -2.003999 q 0.02011,-0.509378 0.02681,-1.112589 0.0067,-0.60321 0.0067,-1.400789 0,-0.536187 -0.0067,-0.985244 0,-0.449057 -0.0067,-0.83109 -0.0067,-0.382033 -0.02011,-0.697043 h 1.930274 q 0.435652,0 0.750662,0.07372 0.31501,0.06702 0.522782,0.221178 0.207773,0.147451 0.301605,0.395438 0.100536,0.241284 0.100536,0.589806 0,0.281498 -0.06032,0.482568 -0.06032,0.20107 -0.180963,0.341819 -0.120642,0.134047 -0.308307,0.22788 -0.167559,0.08713 -0.442355,0.127344 -0.274796,0.03351 -0.63002,0.04692 l 0.475866,-0.09383 v 0.167559 l -0.475866,-0.100536 q 0.34182,0.0134 0.596509,0.04021 0.261391,0.02011 0.435652,0.08713 0.221177,0.08043 0.361926,0.221177 0.147451,0.140749 0.221177,0.355224 0.08043,0.207773 0.08043,0.489271 0,0.348522 -0.107237,0.609913 -0.107238,0.254689 -0.31501,0.422247 -0.207773,0.160857 -0.522783,0.241285 -0.308307,0.08043 -0.730555,0.08043 z"
       style="font-size:6.70234px;font-family:'Obviously Variable';-inkscape-font-specification:'Obviously Variable, @wght=436,wdth=93';font-variation-settings:'wdth' 93, 'wght' 436;text-align:center;letter-spacing:5.02676px;text-anchor:middle;fill:#000000;stroke-width:1;stroke-linecap:round;stroke-linejoin:bevel;stroke-opacity:0.745913;paint-order:stroke markers fill;fill-opacity:1"
       id="path1406" /><path
       d="m -32.6291,-71.413298 h 0.757364 q -0.0134,0.308307 -0.02011,0.650127 -0.0067,0.335117 -0.0067,0.797578 0,0.221177 0,0.509378 0.0067,0.281498 0.0134,0.596508 0.0067,0.308308 0.0067,0.603211 0,0.361926 -0.07373,0.670234 -0.06702,0.301605 -0.214475,0.536187 -0.140749,0.234582 -0.361926,0.40214 -0.221177,0.167559 -0.522782,0.254689 -0.294903,0.08713 -0.676937,0.08713 -0.375331,0 -0.676936,-0.08713 -0.301605,-0.08713 -0.522783,-0.254689 -0.221177,-0.167558 -0.368628,-0.40214 -0.14075,-0.234582 -0.214475,-0.536187 -0.06702,-0.308308 -0.06702,-0.670234 0,-0.294903 0,-0.603211 0.0067,-0.31501 0.0067,-0.596508 0.0067,-0.288201 0.0067,-0.509378 0,-0.462461 -0.0067,-0.797578 0,-0.34182 -0.0134,-0.650127 h 0.764067 q -0.0067,0.167558 -0.0134,0.40214 -0.0067,0.234582 -0.0134,0.522783 0,0.281498 -0.0067,0.583103 0,0.294903 -0.0067,0.589806 0,0.294903 0,0.556294 0,0.261392 0,0.462462 0,0.462461 0.134047,0.757364 0.134046,0.294903 0.388735,0.435652 0.254689,0.140749 0.63002,0.140749 0.361927,0 0.609913,-0.140749 0.247987,-0.140749 0.368629,-0.435652 0.127344,-0.294903 0.127344,-0.757364 0,-0.20107 0,-0.462462 0,-0.261391 -0.0067,-0.556294 0,-0.294903 0,-0.596508 0,-0.301605 -0.0067,-0.583104 0,-0.281498 -0.0067,-0.51608 0,-0.241284 -0.0067,-0.40214 z"
       style="font-size:6.70234px;font-family:'Obviously Variable';-inkscape-font-specification:'Obviously Variable, @wght=436,wdth=93';font-variation-settings:'wdth' 93, 'wght' 436;text-align:center;letter-spacing:5.02676px;text-anchor:middle;fill:#000000;stroke-width:1;stroke-linecap:round;stroke-linejoin:bevel;stroke-opacity:0.745913;paint-order:stroke markers fill;fill-opacity:1"
       id="path1408" /><path
       d="m -24.794062,-66.386543 h -0.764067 q 0.0067,-0.261392 0.0067,-0.536187 0.0067,-0.274796 0.0067,-0.576402 0.0067,-0.308307 0.0067,-0.650127 0,-0.348521 0,-0.750662 0,-0.40214 0,-0.750662 0,-0.348522 -0.0067,-0.650127 0,-0.308308 -0.0067,-0.583103 0,-0.274796 -0.0067,-0.529485 h 0.764067 q -0.0067,0.254689 -0.0134,0.529485 -0.0067,0.268093 -0.0067,0.576401 0,0.301605 0,0.650127 0,0.348521 0,0.750662 0,0.40214 0,0.750662 0,0.341819 0,0.650127 0,0.301605 0.0067,0.583104 0.0067,0.274795 0.0134,0.536187 z"
       style="font-size:6.70234px;font-family:'Obviously Variable';-inkscape-font-specification:'Obviously Variable, @wght=436,wdth=93';font-variation-settings:'wdth' 93, 'wght' 436;text-align:center;letter-spacing:5.02676px;text-anchor:middle;fill:#000000;stroke-width:1;stroke-linecap:round;stroke-linejoin:bevel;stroke-opacity:0.745913;paint-order:stroke markers fill;fill-opacity:1"
       id="path1410" /><path
       d="m -17.756598,-66.63453 -0.214475,-0.42895 q 0.14075,0.0067 0.261392,0.0134 0.120642,0.0067 0.227879,0.01341 0.11394,0 0.234582,0 0.120642,0 0.247987,0 0.308307,0 0.549592,-0.05362 0.247986,-0.06032 0.428949,-0.187666 0.187666,-0.134046 0.301606,-0.348521 0.120642,-0.221177 0.180963,-0.54289 0.06702,-0.328414 0.06702,-0.764067 0,-0.428949 -0.06702,-0.737257 -0.06032,-0.31501 -0.180963,-0.522782 -0.120642,-0.214475 -0.301606,-0.335117 -0.17426,-0.127345 -0.415545,-0.180964 -0.234582,-0.05362 -0.529485,-0.05362 -0.268093,0 -0.509377,0.0067 -0.241285,0.0067 -0.462462,0.02011 l 0.187666,-0.422247 q -0.0067,0.214474 -0.01341,0.482568 -0.0067,0.268094 -0.0134,0.562997 0,0.294903 0,0.609913 0,0.31501 0,0.63002 0,0.482568 0,0.83109 0,0.348521 0,0.60321 0,0.247987 0.0067,0.442355 0.0067,0.187665 0.0134,0.361926 z m 0.764067,0.247987 h -1.528133 q 0.0134,-0.34182 0.0134,-0.717151 0.0067,-0.375331 0.0067,-0.817685 0,-0.442355 0,-0.971839 0,-0.402141 0,-0.764067 0,-0.361927 -0.0067,-0.676937 0,-0.31501 -0.0067,-0.583103 0,-0.274796 -0.0067,-0.495973 h 1.554942 q 0.435653,0 0.784174,0.08043 0.355224,0.08043 0.623318,0.261391 0.268093,0.174261 0.449057,0.462461 0.180963,0.281499 0.268093,0.697044 0.09383,0.408843 0.09383,0.958434 0,0.54289 -0.08713,0.97184 -0.08713,0.422247 -0.261392,0.723853 -0.174261,0.301605 -0.442354,0.495973 -0.268094,0.187665 -0.63002,0.281498 -0.361926,0.09383 -0.824388,0.09383 z"
       style="font-size:6.70234px;font-family:'Obviously Variable';-inkscape-font-specification:'Obviously Variable, @wght=436,wdth=93';font-variation-settings:'wdth' 93, 'wght' 436;text-align:center;letter-spacing:5.02676px;text-anchor:middle;fill:#000000;stroke-width:1;stroke-linecap:round;stroke-linejoin:bevel;stroke-opacity:0.745913;paint-order:stroke markers fill;fill-opacity:1"
       id="path1412" /><path
       d="m -6.1012311,-66.386543 h -2.5938056 q 0,-0.147452 0,-0.402141 0.0067,-0.261391 0.0067,-0.596508 0,-0.341819 0,-0.723853 0.0067,-0.388735 0.0067,-0.790876 0,-0.63002 0,-1.105886 0.0067,-0.482568 0,-0.824388 0,-0.348521 -0.013405,-0.583103 h 0.7640668 q -0.0067,0.120642 -0.013405,0.301605 -0.0067,0.174261 -0.013405,0.408843 -0.0067,0.227879 -0.013405,0.509378 0,0.281498 0,0.60321 0,0.321712 0,0.676936 0,0.321713 0,0.663532 0.0067,0.34182 0.0067,0.643425 0.0067,0.301605 0.0067,0.529485 0.0067,0.227879 0.0067,0.328414 l -0.1809632,-0.294903 q 0.2010702,0 0.4490568,0 0.2479866,0 0.5160802,0 0.2747959,-0.0067 0.5428895,-0.0067 0.274796,-0.0067 0.5227825,-0.0134 0,0.08043 -0.0067,0.167559 0,0.08713 0,0.167558 0,0.08713 0,0.174261 0.0067,0.08043 0.0067,0.167559 z"
       style="font-size:6.70234px;font-family:'Obviously Variable';-inkscape-font-specification:'Obviously Variable, @wght=436,wdth=93';font-variation-settings:'wdth' 93, 'wght' 436;text-align:center;letter-spacing:5.02676px;text-anchor:middle;fill:#000000;stroke-width:1;stroke-linecap:round;stroke-linejoin:bevel;stroke-opacity:0.745913;paint-order:stroke markers fill;fill-opacity:1"
       id="path1414" /><path
       d="m 8.8449992,-69.047372 q 0.1474515,0 0.335117,0 0.1943679,0 0.4021404,0 0.2144749,0 0.4088428,-0.0067 l -0.4289498,0.529485 q -0.080428,0 -0.2010702,0 -0.1139398,0 -0.2546889,0 -0.1340468,0 -0.2882007,0.0067 -0.1474514,0 -0.2949029,0 -0.1474515,0 -0.2814983,0.0067 -0.1340468,0 -0.2412842,0 0.0067,-0.02681 0.0067,-0.06702 0,-0.04022 0,-0.08043 0,-0.04021 0,-0.06702 0,-0.100535 0,-0.180963 0,-0.08713 -0.0067,-0.154154 0.2278795,0.0067 0.4490567,0.01341 0.2211773,0 0.3954381,0 z m 0.4356521,-0.54289 q 0.0067,-0.04021 0.0067,-0.08043 0,-0.04021 0,-0.07373 0,-0.04021 0,-0.07372 0,-0.335117 -0.1206422,-0.569699 -0.1139397,-0.234582 -0.355224,-0.348522 -0.2412842,-0.120642 -0.6032106,-0.120642 -0.31501,0 -0.5629966,0.100535 -0.2479866,0.100535 -0.4289497,0.328415 -0.1742609,0.221177 -0.274796,0.589806 -0.093833,0.361926 -0.093833,0.898113 0,0.522783 0.093833,0.904816 0.093833,0.382033 0.2680936,0.63002 0.1809632,0.241284 0.4356521,0.361926 0.2546889,0.11394 0.5696989,0.11394 0.335117,0 0.5562943,-0.09383 0.2278795,-0.100535 0.3485217,-0.308307 0.1273444,-0.214475 0.1675585,-0.569699 0.040214,-0.361927 0,-0.878007 0.020107,0 0.053619,-0.03351 0.040214,-0.03351 0.080428,-0.08043 0.046916,-0.05362 0.08713,-0.08713 0.040214,-0.04021 0.067023,-0.04692 0.073726,0 0.1474515,-0.0067 0.073726,-0.0067 0.1407491,-0.0134 0.073726,-0.0067 0.1273445,-0.0067 0.02681,0.455759 0.013405,0.837793 -0.013405,0.382033 -0.08713,0.690341 -0.067023,0.301605 -0.2010702,0.529485 -0.1340468,0.227879 -0.3485217,0.382033 -0.2077725,0.154154 -0.5026755,0.22788 -0.2882006,0.08043 -0.6769363,0.08043 -0.4959732,0 -0.8847089,-0.174261 -0.3820334,-0.180963 -0.650127,-0.51608 -0.2613913,-0.34182 -0.4021404,-0.83109 -0.1340468,-0.495974 -0.1340468,-1.119291 0,-0.502676 0.08713,-0.911518 0.08713,-0.408843 0.2613913,-0.710449 0.1742608,-0.308307 0.4289497,-0.509377 0.254689,-0.207773 0.5831036,-0.308308 0.335117,-0.107237 0.7439598,-0.107237 0.3887357,0 0.6836387,0.08713 0.2949029,0.08713 0.5026755,0.241284 0.2077725,0.147452 0.335117,0.355224 0.1340468,0.20107 0.1943678,0.435652 0.067023,0.234582 0.067023,0.489271 0,0.08043 0,0.147452 0,0.06032 -0.0067,0.147451 -0.067023,0 -0.1541538,0 -0.08713,-0.0067 -0.1943679,-0.0067 -0.1072374,0 -0.2010702,0 -0.093833,0 -0.1675585,0.0067 z"
       style="font-size:6.70234px;font-family:'Obviously Variable';-inkscape-font-specification:'Obviously Variable, @wght=436,wdth=93';font-variation-settings:'wdth' 93, 'wght' 436;text-align:center;letter-spacing:5.02676px;text-anchor:middle;fill:#000000;stroke-width:1;stroke-linecap:round;stroke-linejoin:bevel;stroke-opacity:0.745913;paint-order:stroke markers fill;fill-opacity:1"
       id="path1416" /><path
       d="m 19.038577,-71.413298 h 0.757364 q -0.0134,0.308307 -0.02011,0.650127 -0.0067,0.335117 -0.0067,0.797578 0,0.221177 0,0.509378 0.0067,0.281498 0.01341,0.596508 0.0067,0.308308 0.0067,0.603211 0,0.361926 -0.07373,0.670234 -0.06702,0.301605 -0.214475,0.536187 -0.140749,0.234582 -0.361926,0.40214 -0.221177,0.167559 -0.522783,0.254689 -0.294902,0.08713 -0.676936,0.08713 -0.375331,0 -0.676936,-0.08713 -0.301606,-0.08713 -0.522783,-0.254689 -0.221177,-0.167558 -0.368628,-0.40214 -0.14075,-0.234582 -0.214475,-0.536187 -0.06702,-0.308308 -0.06702,-0.670234 0,-0.294903 0,-0.603211 0.0067,-0.31501 0.0067,-0.596508 0.0067,-0.288201 0.0067,-0.509378 0,-0.462461 -0.0067,-0.797578 0,-0.34182 -0.01341,-0.650127 h 0.764067 q -0.0067,0.167558 -0.0134,0.40214 -0.0067,0.234582 -0.01341,0.522783 0,0.281498 -0.0067,0.583103 0,0.294903 -0.0067,0.589806 0,0.294903 0,0.556294 0,0.261392 0,0.462462 0,0.462461 0.134046,0.757364 0.134047,0.294903 0.388736,0.435652 0.254689,0.140749 0.63002,0.140749 0.361927,0 0.609913,-0.140749 0.247987,-0.140749 0.368629,-0.435652 0.127344,-0.294903 0.127344,-0.757364 0,-0.20107 0,-0.462462 0,-0.261391 -0.0067,-0.556294 0,-0.294903 0,-0.596508 0,-0.301605 -0.0067,-0.583104 0,-0.281498 -0.0067,-0.51608 0,-0.241284 -0.0067,-0.40214 z"
       style="font-size:6.70234px;font-family:'Obviously Variable';-inkscape-font-specification:'Obviously Variable, @wght=436,wdth=93';font-variation-settings:'wdth' 93, 'wght' 436;text-align:center;letter-spacing:5.02676px;text-anchor:middle;fill:#000000;stroke-width:1;stroke-linecap:round;stroke-linejoin:bevel;stroke-opacity:0.745913;paint-order:stroke markers fill;fill-opacity:1"
       id="path1418" /><path
       d="m 26.873615,-66.386543 h -0.764067 q 0.0067,-0.261392 0.0067,-0.536187 0.0067,-0.274796 0.0067,-0.576402 0.0067,-0.308307 0.0067,-0.650127 0,-0.348521 0,-0.750662 0,-0.40214 0,-0.750662 0,-0.348522 -0.0067,-0.650127 0,-0.308308 -0.0067,-0.583103 0,-0.274796 -0.0067,-0.529485 h 0.764067 q -0.0067,0.254689 -0.01341,0.529485 -0.0067,0.268093 -0.0067,0.576401 0,0.301605 0,0.650127 0,0.348521 0,0.750662 0,0.40214 0,0.750662 0,0.341819 0,0.650127 0,0.301605 0.0067,0.583104 0.0067,0.274795 0.01341,0.536187 z"
       style="font-size:6.70234px;font-family:'Obviously Variable';-inkscape-font-specification:'Obviously Variable, @wght=436,wdth=93';font-variation-settings:'wdth' 93, 'wght' 436;text-align:center;letter-spacing:5.02676px;text-anchor:middle;fill:#000000;stroke-width:1;stroke-linecap:round;stroke-linejoin:bevel;stroke-opacity:0.745913;paint-order:stroke markers fill;fill-opacity:1"
       id="path1420" /><path
       d="m 33.911079,-66.63453 -0.214475,-0.42895 q 0.140749,0.0067 0.261392,0.0134 0.120642,0.0067 0.227879,0.01341 0.11394,0 0.234582,0 0.120642,0 0.247987,0 0.308307,0 0.549592,-0.05362 0.247986,-0.06032 0.428949,-0.187666 0.187666,-0.134046 0.301606,-0.348521 0.120642,-0.221177 0.180963,-0.54289 0.06702,-0.328414 0.06702,-0.764067 0,-0.428949 -0.06702,-0.737257 -0.06032,-0.31501 -0.180963,-0.522782 -0.120642,-0.214475 -0.301606,-0.335117 -0.174261,-0.127345 -0.415545,-0.180964 -0.234582,-0.05362 -0.529485,-0.05362 -0.268093,0 -0.509377,0.0067 -0.241285,0.0067 -0.462462,0.02011 l 0.187666,-0.422247 q -0.0067,0.214474 -0.01341,0.482568 -0.0067,0.268094 -0.0134,0.562997 0,0.294903 0,0.609913 0,0.31501 0,0.63002 0,0.482568 0,0.83109 0,0.348521 0,0.60321 0,0.247987 0.0067,0.442355 0.0067,0.187665 0.0134,0.361926 z m 0.764067,0.247987 h -1.528134 q 0.01341,-0.34182 0.01341,-0.717151 0.0067,-0.375331 0.0067,-0.817685 0,-0.442355 0,-0.971839 0,-0.402141 0,-0.764067 0,-0.361927 -0.0067,-0.676937 0,-0.31501 -0.0067,-0.583103 0,-0.274796 -0.0067,-0.495973 h 1.554943 q 0.435652,0 0.784174,0.08043 0.355224,0.08043 0.623318,0.261391 0.268093,0.174261 0.449057,0.462461 0.180963,0.281499 0.268093,0.697044 0.09383,0.408843 0.09383,0.958434 0,0.54289 -0.08713,0.97184 -0.08713,0.422247 -0.261392,0.723853 -0.174261,0.301605 -0.442354,0.495973 -0.268094,0.187665 -0.63002,0.281498 -0.361927,0.09383 -0.824388,0.09383 z"
       style="font-size:6.70234px;font-family:'Obviously Variable';-inkscape-font-specification:'Obviously Variable, @wght=436,wdth=93';font-variation-settings:'wdth' 93, 'wght' 436;text-align:center;letter-spacing:5.02676px;text-anchor:middle;fill:#000000;stroke-width:1;stroke-linecap:round;stroke-linejoin:bevel;stroke-opacity:0.745913;paint-order:stroke markers fill;fill-opacity:1"
       id="path1422" /><path
       d="m 45.566448,-66.386543 h -2.593806 q 0,-0.147452 0,-0.402141 0.0067,-0.261391 0.0067,-0.596508 0,-0.341819 0,-0.723853 0.0067,-0.388735 0.0067,-0.790876 0,-0.63002 0,-1.105886 0.0067,-0.482568 0,-0.824388 0,-0.348521 -0.0134,-0.583103 h 0.764067 q -0.0067,0.120642 -0.0134,0.301605 -0.0067,0.174261 -0.0134,0.408843 -0.0067,0.227879 -0.0134,0.509378 0,0.281498 0,0.60321 0,0.321712 0,0.676936 0,0.321713 0,0.663532 0.0067,0.34182 0.0067,0.643425 0.0067,0.301605 0.0067,0.529485 0.0067,0.227879 0.0067,0.328414 l -0.180963,-0.294903 q 0.20107,0 0.449057,0 0.247986,0 0.51608,0 0.274796,-0.0067 0.542889,-0.0067 0.274796,-0.0067 0.522783,-0.0134 0,0.08043 -0.0067,0.167559 0,0.08713 0,0.167558 0,0.08713 0,0.174261 0.0067,0.08043 0.0067,0.167559 z"
       style="font-size:6.70234px;font-family:'Obviously Variable';-inkscape-font-specification:'Obviously Variable, @wght=436,wdth=93';font-variation-settings:'wdth' 93, 'wght' 436;text-align:center;letter-spacing:5.02676px;text-anchor:middle;fill:#000000;stroke-width:1;stroke-linecap:round;stroke-linejoin:bevel;stroke-opacity:0.745913;paint-order:stroke markers fill;fill-opacity:1"
       id="path1424" /><path
       d="m 58.093129,-66.386543 q 0.01341,-0.54289 0.01341,-1.132696 0.0067,-0.589806 0.0067,-1.387384 0,-0.824388 0,-1.420896 0,-0.596509 -0.0134,-1.085779 h 0.931625 q 0.06702,0.167558 0.187666,0.482568 0.120642,0.31501 0.281498,0.723853 0.160856,0.40214 0.335117,0.857899 0.180963,0.45576 0.361926,0.911519 0.06032,0.154153 0.127345,0.361926 0.07372,0.207773 0.140749,0.422247 0.07373,0.214475 0.120642,0.402141 l -0.140749,-0.207773 h 0.194368 l -0.147452,0.207773 q 0.06032,-0.194368 0.120642,-0.388736 0.06702,-0.20107 0.134047,-0.40214 0.07373,-0.20107 0.140749,-0.375331 0.174261,-0.449057 0.348522,-0.898114 0.174261,-0.455759 0.328415,-0.857899 0.160856,-0.408843 0.281498,-0.730556 0.127344,-0.321712 0.194368,-0.509377 h 0.871304 q -0.0067,0.48927 -0.0134,1.085779 -0.0067,0.596508 -0.0067,1.420896 0,0.797578 0.0067,1.387384 0.0067,0.589806 0.02011,1.132696 H 62.17487 q 0.0134,-0.402141 0.02011,-0.770769 0.0067,-0.368629 0.0134,-0.723853 0.0067,-0.361926 0.0067,-0.74396 0.0067,-0.382033 0.0067,-0.810983 0,-0.261391 0.0067,-0.54289 0.0134,-0.2882 0.02011,-0.562996 0.01341,-0.281498 0.01341,-0.522783 l 0.134047,0.395438 -0.335117,-0.05362 0.254689,-0.335117 q -0.04021,0.180963 -0.100535,0.382033 -0.05362,0.20107 -0.120643,0.408843 -0.06032,0.207772 -0.127344,0.408843 -0.06032,0.194367 -0.120642,0.368628 l -1.193017,3.103184 h -0.335117 l -1.213123,-3.156802 q -0.06702,-0.180964 -0.134047,-0.375332 -0.06702,-0.20107 -0.134047,-0.395438 -0.06032,-0.20107 -0.11394,-0.388735 -0.05362,-0.194368 -0.107237,-0.361927 l 0.254689,0.335117 -0.308308,0.04021 0.120642,-0.382033 q 0,0.20107 0.0067,0.422247 0.0067,0.221178 0.0134,0.442355 0.0067,0.214475 0.0134,0.435652 0.0134,0.214475 0.0134,0.415545 0,0.435652 0,0.804281 0,0.361926 0.0067,0.710448 0.0067,0.341819 0.0067,0.697043 0.0067,0.348522 0.0134,0.757365 z"
       style="font-size:6.70234px;font-family:'Obviously Variable';-inkscape-font-specification:'Obviously Variable, @wght=436,wdth=93';font-variation-settings:'wdth' 93, 'wght' 436;text-align:center;letter-spacing:5.02676px;text-anchor:middle;fill:#000000;stroke-width:1;stroke-linecap:round;stroke-linejoin:bevel;stroke-opacity:0.745913;paint-order:stroke markers fill;fill-opacity:1"
       id="path1426" /><path
       d="m 69.822226,-68.625125 v -0.589806 q 0.268093,0 0.542889,0 0.274796,0 0.54289,0 0.268093,0 0.522782,0 0.261392,-0.0067 0.509378,-0.0067 0.254689,-0.0067 0.482569,-0.01341 0,0.07373 -0.0067,0.194368 0,0.120642 0,0.241284 0,0.11394 0,0.194368 -0.221177,-0.0067 -0.475866,-0.0067 -0.247986,-0.0067 -0.509378,-0.0067 -0.254689,0 -0.529485,0 -0.268093,-0.0067 -0.542889,-0.0067 -0.268094,0 -0.536187,0 z m 2.654126,2.238582 h -3.23723 q 0.0067,-0.308308 0.0067,-0.690341 0.0067,-0.382034 0.0067,-0.83109 0,-0.45576 0,-0.991947 0,-0.40214 0,-0.764067 0,-0.361926 0,-0.676936 0,-0.321712 -0.0067,-0.589806 0,-0.274796 -0.0067,-0.482568 h 3.23723 q 0,0.05362 0,0.147451 0,0.08713 0,0.154154 0,0.08043 0,0.194368 0,0.107237 0,0.160856 -0.2882,-0.0067 -0.576401,-0.0067 -0.281498,0 -0.562996,0 -0.274796,-0.0067 -0.54289,-0.0067 -0.261391,0 -0.502675,0 -0.241285,0 -0.462462,0 l 0.140749,-0.449057 q 0,0.134047 0,0.348522 0,0.214475 0,0.469164 0,0.247987 -0.0067,0.509378 0,0.254689 0,0.495973 0,0.234582 0,0.408843 0,0.308307 0,0.60321 0,0.294903 0,0.569699 0,0.268094 0,0.495973 0,0.22788 0,0.408843 0.0067,0.180963 0.0067,0.308308 l -0.147451,-0.442355 q 0.221177,0 0.462461,0 0.247987,0 0.51608,0 0.268094,-0.0067 0.54289,-0.0067 0.281498,0 0.562997,0 0.2882,-0.0067 0.569698,-0.0134 0,0.06032 0,0.167559 0,0.100535 0,0.187665 0,0.07373 0,0.167559 0,0.09383 0,0.154154 z"
       style="font-size:6.70234px;font-family:'Obviously Variable';-inkscape-font-specification:'Obviously Variable, @wght=436,wdth=93';font-variation-settings:'wdth' 93, 'wght' 436;text-align:center;letter-spacing:5.02676px;text-anchor:middle;fill:#000000;stroke-width:1;stroke-linecap:round;stroke-linejoin:bevel;stroke-opacity:0.745913;paint-order:stroke markers fill;fill-opacity:1"
       id="path1428" /><path
       d="m 79.359665,-66.63453 -0.214475,-0.42895 q 0.140749,0.0067 0.261391,0.0134 0.120642,0.0067 0.22788,0.01341 0.113939,0 0.234582,0 0.120642,0 0.247986,0 0.308308,0 0.549592,-0.05362 0.247987,-0.06032 0.42895,-0.187666 0.187665,-0.134046 0.301605,-0.348521 0.120642,-0.221177 0.180963,-0.54289 0.06702,-0.328414 0.06702,-0.764067 0,-0.428949 -0.06702,-0.737257 -0.06032,-0.31501 -0.180963,-0.522782 -0.120642,-0.214475 -0.301605,-0.335117 -0.174261,-0.127345 -0.415545,-0.180964 -0.234582,-0.05362 -0.529485,-0.05362 -0.268094,0 -0.509378,0.0067 -0.241284,0.0067 -0.462461,0.02011 l 0.187665,-0.422247 q -0.0067,0.214474 -0.0134,0.482568 -0.0067,0.268094 -0.0134,0.562997 0,0.294903 0,0.609913 0,0.31501 0,0.63002 0,0.482568 0,0.83109 0,0.348521 0,0.60321 0,0.247987 0.0067,0.442355 0.0067,0.187665 0.01341,0.361926 z m 0.764067,0.247987 h -1.528134 q 0.01341,-0.34182 0.01341,-0.717151 0.0067,-0.375331 0.0067,-0.817685 0,-0.442355 0,-0.971839 0,-0.402141 0,-0.764067 0,-0.361927 -0.0067,-0.676937 0,-0.31501 -0.0067,-0.583103 0,-0.274796 -0.0067,-0.495973 h 1.554943 q 0.435652,0 0.784174,0.08043 0.355224,0.08043 0.623317,0.261391 0.268094,0.174261 0.449057,0.462461 0.180963,0.281499 0.268094,0.697044 0.09383,0.408843 0.09383,0.958434 0,0.54289 -0.08713,0.97184 -0.08713,0.422247 -0.261391,0.723853 -0.174261,0.301605 -0.442355,0.495973 -0.268093,0.187665 -0.63002,0.281498 -0.361926,0.09383 -0.824387,0.09383 z"
       style="font-size:6.70234px;font-family:'Obviously Variable';-inkscape-font-specification:'Obviously Variable, @wght=436,wdth=93';font-variation-settings:'wdth' 93, 'wght' 436;text-align:center;letter-spacing:5.02676px;text-anchor:middle;fill:#000000;stroke-width:1;stroke-linecap:round;stroke-linejoin:bevel;stroke-opacity:0.745913;paint-order:stroke markers fill;fill-opacity:1"
       id="path1430" /><path
       d="m 89.178584,-66.386543 h -0.764066 q 0.0067,-0.261392 0.0067,-0.536187 0.0067,-0.274796 0.0067,-0.576402 0.0067,-0.308307 0.0067,-0.650127 0,-0.348521 0,-0.750662 0,-0.40214 0,-0.750662 0,-0.348522 -0.0067,-0.650127 0,-0.308308 -0.0067,-0.583103 0,-0.274796 -0.0067,-0.529485 h 0.764066 q -0.0067,0.254689 -0.0134,0.529485 -0.0067,0.268093 -0.0067,0.576401 0,0.301605 0,0.650127 0,0.348521 0,0.750662 0,0.40214 0,0.750662 0,0.341819 0,0.650127 0,0.301605 0.0067,0.583104 0.0067,0.274795 0.0134,0.536187 z"
       style="font-size:6.70234px;font-family:'Obviously Variable';-inkscape-font-specification:'Obviously Variable, @wght=436,wdth=93';font-variation-settings:'wdth' 93, 'wght' 436;text-align:center;letter-spacing:5.02676px;text-anchor:middle;fill:#000000;stroke-width:1;stroke-linecap:round;stroke-linejoin:bevel;stroke-opacity:0.745913;paint-order:stroke markers fill;fill-opacity:1"
       id="path1432" /><path
       d="m 95.785245,-68.249794 q 0.127345,0 0.294903,0.0067 0.167559,0 0.348522,0.0067 0.187665,0 0.361926,0 0.174261,0 0.31501,0 0.134047,0 0.308308,0 0.174261,0 0.348522,0 0.180963,-0.0067 0.348521,-0.0067 0.174261,-0.0067 0.308308,-0.0067 l 0.02011,0.576401 q -0.174261,0 -0.355224,0 -0.174261,-0.0067 -0.348522,-0.0067 -0.167558,0 -0.328414,0 -0.160857,0 -0.301606,0 -0.134046,0 -0.301605,0 -0.160856,0 -0.341819,0 -0.174261,0 -0.355224,0.0067 -0.180964,0 -0.335117,0 z m 3.585752,1.863251 h -0.837792 q -0.02681,-0.120642 -0.09383,-0.34182 -0.06702,-0.227879 -0.154154,-0.522782 -0.08713,-0.301605 -0.194368,-0.643425 -0.107237,-0.341819 -0.221177,-0.697043 -0.107237,-0.355224 -0.214475,-0.697044 -0.107237,-0.341819 -0.20107,-0.636722 -0.107237,-0.31501 -0.180963,-0.542889 -0.07373,-0.234582 -0.120642,-0.408843 -0.04692,-0.174261 -0.08713,-0.294903 l 0.187666,0.160856 h -0.301606 l 0.187666,-0.154154 q -0.03351,0.11394 -0.08713,0.288201 -0.04692,0.167558 -0.120643,0.408843 -0.07372,0.241284 -0.187665,0.576401 -0.107238,0.355224 -0.234582,0.764067 -0.127344,0.408842 -0.261391,0.824387 -0.127345,0.415546 -0.241284,0.790877 -0.11394,0.375331 -0.201071,0.670234 -0.08713,0.294903 -0.127344,0.455759 h -0.784174 q 0.08713,-0.234582 0.207773,-0.583104 0.120642,-0.355224 0.261391,-0.770769 0.140749,-0.422247 0.288201,-0.871304 0.154153,-0.449057 0.294902,-0.884709 0.147452,-0.435652 0.268094,-0.817686 0.127345,-0.382033 0.214475,-0.670234 0.09383,-0.2882 0.134047,-0.428949 h 1.099184 q 0.04692,0.147451 0.140749,0.428949 0.09383,0.274796 0.214475,0.65683 0.120642,0.375331 0.261391,0.804281 0.147451,0.422247 0.294903,0.871304 0.154154,0.442354 0.301605,0.864602 0.147452,0.422247 0.274796,0.784173 0.127345,0.355224 0.221177,0.616616 z"
       style="font-size:6.70234px;font-family:'Obviously Variable';-inkscape-font-specification:'Obviously Variable, @wght=436,wdth=93';font-variation-settings:'wdth' 93, 'wght' 436;text-align:center;letter-spacing:5.02676px;text-anchor:middle;fill:#000000;stroke-width:1;stroke-linecap:round;stroke-linejoin:bevel;stroke-opacity:0.745913;paint-order:stroke markers fill;fill-opacity:1"
       id="path1434" /></g></svg>
